<?xml version="1.0" encoding="utf-8"?>
<!-- Generator: Adobe Illustrator 19.2.1, SVG Export Plug-In . SVG Version: 6.00 Build 0)  -->
<svg version="1.1" id="layer" xmlns="http://www.w3.org/2000/svg" xmlns:xlink="http://www.w3.org/1999/xlink" x="0px" y="0px"
	 viewBox="0 0 652 652" style="enable-background:new 0 0 652 652;" xml:space="preserve">
<style type="text/css">
	.st0{fill:#094303;}
</style>
<g>
	<path class="st0" d="M21.4,293.5l0.2,55.3l1.4,5.7c1.7,6.7,4.1,13,6.8,17.6c8.4,14.4,22.9,24.5,40.4,28c7.8,1.6,19.9,1.3,27.8-0.7
		c17.3-4.5,32.1-16.4,40.1-32.3c4.9-9.8,7-23.2,5.5-34.9c-2.5-19.4-14.6-36.7-32.1-46.1c-8.6-4.7-16.7-6.6-28.3-6.6
		c-4.4,0-8.7,0.2-9.7,0.3l-1.7,0.3v24.2c0,13.3,0.2,24.1,0.4,24c7.4-3.7,7.7-3.8,11.7-3.6c2.3,0.1,4.8,0.7,6.1,1.2
		c3.3,1.6,6.5,5.1,7.8,8.6c4.6,12.2-4.3,24-17.3,23c-7.1-0.5-11.7-4.6-14-12.1c-0.9-3-1-7.4-1.1-55.3l-0.2-52h-44
		C21.2,238.2,21.4,293.5,21.4,293.5z M224.6,298.3c-2.9,1.4-5.6,4.3-6.6,7c-0.7,1.9-0.7,6,0.1,8.7c0.8,2.8,4.8,6.6,7.7,7.4
		c11.2,3.1,20.6-5.2,17.7-15.5c-0.7-2.6-4.5-6.7-7.3-8C232.8,296.4,228.1,296.6,224.6,298.3z M490.5,298.2
		c-4.8,2.2-7.3,6.2-7.3,11.6c0,6,3.8,10.7,9.8,11.9c3.4,0.7,7.6,0.3,10.2-1.1c4.8-2.4,7.4-8.4,6.1-13.8c-0.8-3.4-4.1-7.4-7.3-8.9
		C498.7,296.5,493.9,296.6,490.5,298.2z M252.2,350.7v48.4h26.6v-96.7h-26.6V350.7z M283.9,335.3c0.3,35.2,0.3,35.7,3.1,43.2
		c4.4,11.8,17.1,20.5,31.1,21.5l4.7,0.3v-28.3l-2.7-0.3c-6.2-0.8-8.6-3.5-9.1-10.6l-0.3-3.9h11.6V329h-11.4v-26.6h-27.2
		C283.7,302.3,283.9,335.3,283.9,335.3z M343,336.4c0.2,33.3,0.2,34.2,1.4,38.4c2.1,7.3,4.7,12,9.6,17c7.2,7.2,15.4,10.6,26,10.7
		c9.8,0.1,17.6-3,26.8-10.9l2.8-2.4l3.8,3.2c9.3,7.9,19.5,11.3,29.9,9.9c7.8-1,12.8-3,18.5-7.6c6.4-5.1,10.7-11.1,13.4-18.9l1.5-4.2
		l0.2-34.7l0.2-34.6l-18.4,0.1l-18.4,0.2l-0.3,29.7c-0.3,29.1-0.3,29.7-1.4,31.2c-2.8,3.7-7.3,3.6-9.2-0.3c-1-1.8-1-4-1.2-31.5
		l-0.2-29.5l-18.3,0.1l-18.3,0.2l-0.3,29.7c-0.3,29.1-0.3,29.7-1.4,31.2c-1.7,2.3-3.7,3.2-6.2,2.4c-3.6-1.1-3.5-0.3-3.8-33.5
		l-0.3-29.9l-18.4-0.2l-18.4-0.1C342.9,302.3,343,336.4,343,336.4z M514.7,332.1c0,30.9,0.3,37,2.2,43.4
		c4.1,13.9,16.7,23.6,32.2,24.6l4.7,0.3v-28.3l-2.7-0.3c-5.7-0.7-8.4-3.3-9-8.9c-0.2-1.5-0.4-3.3-0.5-4.1l-0.2-1.5h11.9V329h-12
		v-26.6h-26.6C514.7,302.3,514.7,332.1,514.7,332.1z M559.2,350.7v48.4h26.6v-20.7c0-17.1,0.2-21,0.8-22.2c1.3-2.6,4.4-3,6.5-0.9
		l1.4,1.3v42.4h26.6v-25.4c0-27.9-0.2-29.6-3.3-35.4c-2.9-5.5-7.3-9.2-12.8-10.6c-5.6-1.5-11.1-0.8-16.2,2.1
		c-1.4,0.8-2.6,1.4-2.7,1.4c-0.1,0-0.2-6.5-0.2-14.4v-14.4h-26.6V350.7z M217.4,363.7v35.3H244v-70.6h-26.6V363.7z M483.1,363.7
		v35.3h26.6v-70.6h-26.6V363.7z M146.2,351.1c0,24.8,0.2,26.8,3.5,33.7c3.5,7.4,11.3,13.7,19.3,15.6c4.5,1,12.4,1,16.4,0
		c10.2-2.7,19-11.2,22.3-21.7c1.1-3.7,1.2-4.6,1.2-26.6v-22.8l-13.2-0.2l-13.2-0.1l-0.2,21.8l-0.2,21.8l-1.6,1.4
		c-1.3,1.1-2,1.3-3.7,1.1c-4.1-0.5-3.9,0.5-4.2-23.9l-0.3-21.8l-13.2-0.2l-13.2-0.1C146.2,329,146.2,351.1,146.2,351.1z"/>
</g>
</svg>
